<svg xmlns="http://www.w3.org/2000/svg" id="DEVFED_Logo_Full" data-name="DEVFED Logo Full" width="150.768" height="40" viewBox="0 0 150.768 40">
  <path id="Path_4617" data-name="Path 4617" d="M1.056,0H5.264c3.344,0,5.664-2.112,5.664-5.328s-2.32-5.344-5.664-5.344H1.056ZM3.328-2V-8.672H5.264A3.123,3.123,0,0,1,8.608-5.328,3.2,3.2,0,0,1,5.264-2ZM12-3.872A3.914,3.914,0,0,0,16.128.192,4.817,4.817,0,0,0,19.312-.88l-.9-1.312a3.16,3.16,0,0,1-2.064.768,2.082,2.082,0,0,1-2.224-1.792h5.744v-.448C19.872-6.192,18.3-7.92,16-7.92A3.933,3.933,0,0,0,12-3.872ZM16-6.3a1.79,1.79,0,0,1,1.9,1.712H14.1A1.857,1.857,0,0,1,16-6.3ZM23.344,0h2.192l3.1-7.728H26.448L24.432-2.352,22.416-7.728H20.24ZM30.56-8.864a1.215,1.215,0,0,0,1.216-1.216A1.215,1.215,0,0,0,30.56-11.3a1.226,1.226,0,0,0-1.216,1.216A1.226,1.226,0,0,0,30.56-8.864ZM29.552,0h2.032V-7.728H29.552ZM33.1-3.872A3.924,3.924,0,0,0,37.2.192a3.562,3.562,0,0,0,3.056-1.408L38.928-2.448a1.95,1.95,0,0,1-1.632.832,2.079,2.079,0,0,1-2.1-2.256,2.065,2.065,0,0,1,2.1-2.24,1.874,1.874,0,0,1,1.632.832l1.328-1.248A3.6,3.6,0,0,0,37.2-7.92,3.92,3.92,0,0,0,33.1-3.872Zm7.984,0A3.914,3.914,0,0,0,45.216.192,4.817,4.817,0,0,0,48.4-.88l-.9-1.312a3.16,3.16,0,0,1-2.064.768,2.082,2.082,0,0,1-2.224-1.792H48.96v-.448c0-2.528-1.568-4.256-3.872-4.256A3.933,3.933,0,0,0,41.088-3.872Zm4-2.432a1.79,1.79,0,0,1,1.9,1.712H43.184A1.857,1.857,0,0,1,45.088-6.3Zm4.672,5.3a5.2,5.2,0,0,0,3.456,1.2c2.144,0,3.344-1.072,3.344-2.48,0-1.92-1.776-2.272-3.1-2.528-.864-.176-1.472-.352-1.472-.832,0-.448.48-.72,1.216-.72a3.26,3.26,0,0,1,2.288.9L56.3-6.864a4.937,4.937,0,0,0-3.12-1.056c-2.032,0-3.168,1.136-3.168,2.432,0,1.84,1.712,2.16,3.04,2.416.88.176,1.552.368,1.552.912,0,.48-.416.784-1.3.784A4.423,4.423,0,0,1,50.64-2.432ZM62.208,0H64.48V-4.448h5.168V-6.4H64.48V-8.72h5.28v-1.952H62.208ZM74.88.192a3.922,3.922,0,0,0,4.1-4.064,3.918,3.918,0,0,0-4.1-4.048A3.914,3.914,0,0,0,70.8-3.872,3.918,3.918,0,0,0,74.88.192Zm0-1.808a2.033,2.033,0,0,1-1.968-2.256,2.028,2.028,0,0,1,1.968-2.24,2.04,2.04,0,0,1,1.984,2.24A2.045,2.045,0,0,1,74.88-1.616ZM80.48,0h2.032V-5.1a2.589,2.589,0,0,1,1.9-.88,2.572,2.572,0,0,1,.56.064V-7.9a3.306,3.306,0,0,0-2.464,1.232V-7.728H80.48Z" transform="translate(52 16)" fill="#10c08a"/>
  <path id="Path_4616" data-name="Path 4616" d="M1.056,0H8.608V-1.968H3.328v-2.48H8.5V-6.4H3.328V-8.72h5.28v-1.952H1.056ZM11.5,0h4.208c3.344,0,5.664-2.112,5.664-5.328s-2.32-5.344-5.664-5.344H11.5Zm2.272-2V-8.672h1.936a3.123,3.123,0,0,1,3.344,3.344A3.2,3.2,0,0,1,15.712-2ZM24.112-4.256c0,2.624,1.52,4.448,4.784,4.448,3.232,0,4.752-1.808,4.752-4.464v-6.4h-2.3v6.336A2.271,2.271,0,0,1,28.9-1.824a2.28,2.28,0,0,1-2.48-2.512v-6.336h-2.3ZM41.968.192a4.953,4.953,0,0,0,4.544-2.624L44.56-3.376a2.893,2.893,0,0,1-2.592,1.552,3.308,3.308,0,0,1-3.264-3.5,3.308,3.308,0,0,1,3.264-3.5A2.923,2.923,0,0,1,44.56-7.28l1.952-.96a4.924,4.924,0,0,0-4.544-2.608,5.4,5.4,0,0,0-5.6,5.52A5.4,5.4,0,0,0,41.968.192ZM56.352,0h2.48L54.72-10.672H51.872L47.744,0h2.5l.672-1.84H55.68ZM53.3-8.7l1.76,4.9H51.52ZM62.384,0h2.288V-8.672h3.1v-2H59.264v2h3.12Zm7.968,0h2.272V-10.672H70.352Zm4.992-5.328A5.358,5.358,0,0,0,80.912.192,5.362,5.362,0,0,0,86.5-5.328a5.362,5.362,0,0,0-5.584-5.52A5.358,5.358,0,0,0,75.344-5.328Zm8.816,0a3.248,3.248,0,0,1-3.248,3.5,3.236,3.236,0,0,1-3.232-3.5,3.227,3.227,0,0,1,3.232-3.5A3.24,3.24,0,0,1,84.16-5.328ZM96.576,0h2.192V-10.672H96.5V-3.76l-4.944-6.912H89.216V0h2.272V-7.168Z" transform="translate(52 34)" fill="#1047c0"/>
  <g id="DEVFED_Logo_Icon" data-name="DEVFED Logo Icon" transform="translate(1 1)">
    <rect id="Rectangle_5360" data-name="Rectangle 5360" width="38" height="38" fill="#f2f6fa"/>
    <rect id="Rectangle_5537" data-name="Rectangle 5537" width="38" height="18" fill="#1047c0"/>
    <path id="Path_4534" data-name="Path 4534" d="M0,18V0H18c0,.131,0,.262,0,.394A17.606,17.606,0,0,1,.394,18C.262,18,.131,18,0,18Z" transform="translate(38) rotate(90)" fill="#0199ff"/>
    <rect id="Rectangle_5550" data-name="Rectangle 5550" width="18" height="18" transform="translate(20 20)" fill="#f2f6fa"/>
    <circle id="Ellipse_996" data-name="Ellipse 996" cx="7" cy="7" r="7" transform="translate(22 22)" fill="#ffda2c"/>
    <g id="Group_4490" data-name="Group 4490" transform="translate(0 20)">
      <rect id="Rectangle_5536" data-name="Rectangle 5536" width="18" height="18" transform="translate(0 0)" fill="#c1e6ff"/>
      <path id="Intersection_15" data-name="Intersection 15" d="M0,18V0H18V.172A17.983,17.983,0,0,1,.034,18Z" transform="translate(0 18) rotate(-90)" fill="#10c08a"/>
    </g>
  </g>
  <g id="DEVFED_Logo_Icon-2" data-name="DEVFED Logo Icon">
    <rect id="Rectangle_5360-2" data-name="Rectangle 5360" width="40" height="40" fill="#f2f6fa"/>
    <rect id="Rectangle_5537-2" data-name="Rectangle 5537" width="38" height="18" transform="translate(1 1)" fill="#1047c0"/>
    <path id="Path_4534-2" data-name="Path 4534" d="M0,18V0H18c0,.131,0,.262,0,.394A17.606,17.606,0,0,1,.394,18C.262,18,.131,18,0,18Z" transform="translate(39 19) rotate(180)" fill="#0199ff"/>
    <rect id="Rectangle_5550-2" data-name="Rectangle 5550" width="18" height="18" transform="translate(21 21)" fill="#f2f6fa"/>
    <circle id="Ellipse_996-2" data-name="Ellipse 996" cx="7" cy="7" r="7" transform="translate(23 23)" fill="#ffda2c"/>
    <g id="Group_4490-2" data-name="Group 4490" transform="translate(1 21)">
      <rect id="Rectangle_5536-2" data-name="Rectangle 5536" width="18" height="18" transform="translate(0 0)" fill="#c1e6ff"/>
      <path id="Intersection_15-2" data-name="Intersection 15" d="M0,18V0H18V.172A17.983,17.983,0,0,1,.034,18Z" transform="translate(0 18) rotate(-90)" fill="#10c08a"/>
    </g>
  </g>
</svg>